<?xml version="1.0" encoding="UTF-8" standalone="no"?>
<!-- Created with Inkscape (http://www.inkscape.org/) -->

<svg
   width="44.646839mm"
   height="61.355888mm"
   viewBox="0 0 44.646839 61.355889"
   version="1.1"
   id="svg1"
   xml:space="preserve"
   xmlns:inkscape="http://www.inkscape.org/namespaces/inkscape"
   xmlns:sodipodi="http://sodipodi.sourceforge.net/DTD/sodipodi-0.dtd"
   xmlns="http://www.w3.org/2000/svg"
   xmlns:svg="http://www.w3.org/2000/svg"><sodipodi:namedview
     id="namedview1"
     pagecolor="#ffffff"
     bordercolor="#000000"
     borderopacity="0.25"
     inkscape:showpageshadow="2"
     inkscape:pageopacity="0.0"
     inkscape:pagecheckerboard="0"
     inkscape:deskcolor="#d1d1d1"
     inkscape:document-units="mm"><inkscape:page
       x="-1.4999342e-08"
       y="-3.265333e-07"
       width="44.646839"
       height="61.355888"
       id="page4"
       margin="0"
       bleed="0" /></sodipodi:namedview><defs
     id="defs1"><clipPath
       clipPathUnits="userSpaceOnUse"
       id="clipPath2"><path
         d="M 0,475.249 H 841.89 V 0 H 0 Z"
         transform="translate(-313.73841,-277.68181)"
         id="path2" /></clipPath><clipPath
       clipPathUnits="userSpaceOnUse"
       id="clipPath4"><path
         d="M 0,475.249 H 841.89 V 0 H 0 Z"
         transform="translate(-381.90031,-225.74821)"
         id="path4" /></clipPath><clipPath
       clipPathUnits="userSpaceOnUse"
       id="clipPath6"><path
         d="M 0,475.249 H 841.89 V 0 H 0 Z"
         transform="translate(-441.75051,-225.6485)"
         id="path6" /></clipPath><clipPath
       clipPathUnits="userSpaceOnUse"
       id="clipPath8"><path
         d="M 0,475.249 H 841.89 V 0 H 0 Z"
         transform="translate(-498.60581,-225.74821)"
         id="path8" /></clipPath><clipPath
       clipPathUnits="userSpaceOnUse"
       id="clipPath10"><path
         d="M 0,475.249 H 841.89 V 0 H 0 Z"
         transform="translate(-543.84961,-261.67211)"
         id="path10" /></clipPath><clipPath
       clipPathUnits="userSpaceOnUse"
       id="clipPath12"><path
         d="M 0,475.249 H 841.89 V 0 H 0 Z"
         transform="translate(-616.10932,-271.2779)"
         id="path12" /></clipPath><clipPath
       clipPathUnits="userSpaceOnUse"
       id="clipPath14"><path
         d="M 0,475.249 H 841.89 V 0 H 0 Z"
         transform="translate(-670.86122,-271.27861)"
         id="path14" /></clipPath><clipPath
       clipPathUnits="userSpaceOnUse"
       id="clipPath16"><path
         d="M 0,475.249 H 841.89 V 0 H 0 Z"
         transform="translate(-702.34052,-270.27731)"
         id="path16" /></clipPath><clipPath
       clipPathUnits="userSpaceOnUse"
       id="clipPath18"><path
         d="M 0,475.249 H 841.89 V 0 H 0 Z"
         transform="translate(-524.42191,-285.9845)"
         id="path18" /></clipPath><clipPath
       clipPathUnits="userSpaceOnUse"
       id="clipPath20"><path
         d="M 0,475.249 H 841.89 V 0 H 0 Z"
         transform="translate(-692.31161,-285.9845)"
         id="path20" /></clipPath><clipPath
       clipPathUnits="userSpaceOnUse"
       id="clipPath22"><path
         d="M 0,475.249 H 841.89 V 0 H 0 Z"
         transform="translate(-218.6614,-235.05781)"
         id="path22" /></clipPath><clipPath
       clipPathUnits="userSpaceOnUse"
       id="clipPath24"><path
         d="M 0,475.249 H 841.89 V 0 H 0 Z"
         transform="translate(-243.88741,-225.42371)"
         id="path24" /></clipPath><clipPath
       clipPathUnits="userSpaceOnUse"
       id="clipPath26"><path
         d="M 0,475.249 H 841.89 V 0 H 0 Z"
         transform="translate(-238.98271,-242.63771)"
         id="path26" /></clipPath><clipPath
       clipPathUnits="userSpaceOnUse"
       id="clipPath28"><path
         d="M 0,475.249 H 841.89 V 0 H 0 Z"
         transform="translate(-157.8862,-237.6251)"
         id="path28" /></clipPath><clipPath
       clipPathUnits="userSpaceOnUse"
       id="clipPath30"><path
         d="M 0,475.249 H 841.89 V 0 H 0 Z"
         transform="translate(-195.9286,-199.5827)"
         id="path30" /></clipPath><clipPath
       clipPathUnits="userSpaceOnUse"
       id="clipPath32"><path
         d="M 0,475.249 H 841.89 V 0 H 0 Z"
         transform="translate(-195.9286,-275.66741)"
         id="path32" /></clipPath></defs><g
     id="g1"
     inkscape:groupmode="layer"
     inkscape:label="1"
     transform="matrix(0.26458333,0,0,0.26458334,-46.889941,-60.78619)"><path
       id="path1"
       d="m 0,0 c 0,5.904 5.301,11.207 14.31,11.207 10.903,0 20.81,-7.705 20.81,-18.21 h 1.904 c 0,11.704 -10.708,20.61 -25.916,20.61 -13.81,0 -25.816,-7.103 -25.816,-20.01 0,-23.716 41.126,-18.712 41.126,-36.525 0,-7.104 -6.706,-13.106 -18.012,-13.106 -12.711,0 -23.114,7.703 -23.114,17.11 0,2.102 0.597,4.602 1.399,6.802 h -1.9 c -0.903,-2.2 -1.403,-4.7 -1.403,-6.902 0,-11.107 11.909,-19.413 28.22,-19.413 16.409,0 29.615,8.004 29.615,22.215 C 41.223,-11.207 0,-16.51 0,0"
       style="fill:#9d651d;fill-opacity:1;fill-rule:nonzero;stroke:none"
       transform="matrix(0.40576488,0,0,-0.40576488,185.5933,437.92738)"
       clip-path="url(#clipPath2)" /><path
       id="path3"
       d="m 0,0 c -3.605,0 -5.903,3.103 -5.903,7.905 0,6.206 3.6,11.108 10.904,12.908 l 4.605,1.001 v -10.907 0 -0.202 C 6.904,2.402 2.998,0 0,0 m 1.9,45.53 c -12.808,0 -23.016,-8.206 -24.314,-19.413 h 1.9 c 1.201,8.707 8.207,15.409 16.71,15.409 7.906,0 13.41,-5.903 13.41,-14.508 v -3.302 l -15.31,-3.103 c -9.605,-1.901 -15.612,-7.404 -15.612,-14.909 0,-7.505 6.103,-12.208 14.009,-12.208 6.94,0 13.315,3.546 17.353,13.195 1.675,-7.169 8.092,-12.513 15.77,-12.513 v 0.319 0 30.319 C 25.816,37.824 14.106,45.53 1.9,45.53"
       style="fill:#9d651d;fill-opacity:1;fill-rule:nonzero;stroke:none"
       transform="matrix(0.40576488,0,0,-0.40576488,213.25101,459.0002)"
       clip-path="url(#clipPath4)" /><path
       id="path5"
       d="m 0,0 c -5.904,0 -10.005,8.505 -10.005,19.613 0,11.107 4.101,19.612 10.005,19.612 4.902,0 9.106,-6.104 10.509,-14.01 V 14.008 C 9.106,6.105 4.902,0 0,0 M 10.509,65.641 V 32.521 C 7.506,40.625 1.404,45.63 -6.701,45.63 c -12.108,0 -20.315,-10.508 -20.315,-26.017 0,-15.51 8.207,-26.017 20.315,-26.017 8.094,0 14.456,5.372 17.48,14.012 1.361,-7.577 7.972,-13.331 15.94,-13.331 v 0.32 0 54.835 c 0,8.952 -7.258,16.209 -16.21,16.209"
       style="fill:#9d651d;fill-opacity:1;fill-rule:nonzero;stroke:none"
       transform="matrix(0.40576488,0,0,-0.40576488,237.53612,459.04067)"
       clip-path="url(#clipPath6)" /><path
       id="path7"
       d="m 0,0 c -3.605,0 -5.903,3.103 -5.903,7.905 0,6.206 3.6,11.108 10.904,12.908 l 4.605,1.001 v -10.907 0 -0.202 C 6.904,2.402 2.998,0 0,0 m 1.9,45.53 c -12.808,0 -23.016,-8.206 -24.313,-19.413 h 1.899 c 1.201,8.707 8.207,15.409 16.71,15.409 7.906,0 13.41,-5.903 13.41,-14.508 v -3.302 l -15.31,-3.103 c -9.605,-1.901 -15.612,-7.404 -15.612,-14.909 0,-7.505 6.103,-12.208 14.009,-12.208 6.94,0 13.315,3.546 17.353,13.195 1.675,-7.169 8.092,-12.513 15.77,-12.513 v 0.319 0 30.319 C 25.816,37.824 14.106,45.53 1.9,45.53"
       style="fill:#9d651d;fill-opacity:1;fill-rule:nonzero;stroke:none"
       transform="matrix(0.40576488,0,0,-0.40576488,260.606,459.0002)"
       clip-path="url(#clipPath8)" /><path
       id="path9"
       d="m 0,0 c 0,3.802 3.702,7.303 9.903,7.303 7.808,0 14.81,-5.403 14.81,-12.606 h 1.904 c 0,8.505 -7.808,14.909 -19.114,14.909 -10.005,0 -18.911,-5.204 -18.911,-15.21 0,-18.112 29.619,-14.208 29.619,-25.915 0,-4.604 -4.703,-8.608 -12.608,-8.608 -9.008,0 -16.511,5.303 -16.511,11.909 0,1.502 0.399,3.302 1.001,4.903 h -1.9 c -0.602,-1.601 -1.001,-3.504 -1.001,-5.104 0,-8.005 8.703,-14.009 20.713,-14.009 12.007,0 21.71,5.805 21.71,16.711 C 29.615,-6.506 0,-10.808 0,0"
       style="fill:#9d651d;fill-opacity:1;fill-rule:nonzero;stroke:none"
       transform="matrix(0.40576488,0,0,-0.40576488,278.96435,444.42355)"
       clip-path="url(#clipPath10)" /><path
       id="path11"
       d="m 0,0 c -8.008,0 -15.31,-5.704 -19.314,-14.01 v 35.022 c -8.952,0 -16.209,-7.257 -16.209,-16.208 v -55.836 h 16.209 v 31.519 c 2.001,6.904 6.505,11.907 11.107,11.907 3.202,0 5.403,-2.4 5.403,-5.802 v -37.624 h 16.21 v 36.521 C 13.406,-5.804 8.207,0 0,0"
       style="fill:#9d651d;fill-opacity:1;fill-rule:nonzero;stroke:none"
       transform="matrix(0.40576488,0,0,-0.40576488,308.2848,440.52586)"
       clip-path="url(#clipPath12)" /><path
       id="path13"
       d="m 0,0 c -6.977,0 -12.684,-5.485 -15.355,-13.498 -1.681,7.16 -8.094,12.497 -15.766,12.497 v -0.001 0 -50.031 h 16.21 v 32.321 c 1.903,9.705 7.807,16.909 14.809,16.909 4.602,0 7.706,-3.202 7.706,-7.905 0,-3.803 -1.9,-6.903 -4.304,-9.404 h 2.303 c 2.2,2.501 3.901,5.704 3.901,9.506 C 9.504,-4.004 5.802,0 0,0"
       style="fill:#9d651d;fill-opacity:1;fill-rule:nonzero;stroke:none"
       transform="matrix(0.40576488,0,0,-0.40576488,330.50119,440.52556)"
       clip-path="url(#clipPath14)" /><path
       id="path15"
       d="m 0,0 c -8.952,0 -16.21,-7.257 -16.21,-16.21 v -0.52 h 0.05 V -50.032 H 0.049 V 0 L 0,-0.049 Z"
       style="fill:#9d651d;fill-opacity:1;fill-rule:nonzero;stroke:none"
       transform="matrix(0.40576488,0,0,-0.40576488,343.27439,440.93186)"
       clip-path="url(#clipPath16)" /><path
       id="path17"
       d="m 0,0 h -39.752 c -4.682,0 -8.477,-3.796 -8.477,-8.478 H -8.478 C -3.796,-8.478 0,-4.683 0,0"
       style="fill:#9d651d;fill-opacity:1;fill-rule:nonzero;stroke:none"
       transform="matrix(0.40576488,0,0,-0.40576488,271.08127,434.55843)"
       clip-path="url(#clipPath18)" /><path
       id="path19"
       d="m 0,0 c -4.682,0 -8.477,-3.796 -8.477,-8.478 h 16.66 c 4.683,0 8.479,3.795 8.479,8.478 z"
       style="fill:#9d651d;fill-opacity:1;fill-rule:nonzero;stroke:none"
       transform="matrix(0.40576488,0,0,-0.40576488,339.20501,434.55843)"
       clip-path="url(#clipPath20)" /><path
       id="path21"
       d="m 0,0 -19.484,4.441 4.456,19.556 c 1.348,6.821 4.961,14.952 14.516,14.952 H 13.956 V 24.48 c 0,-7.978 -6.49,-14.468 -14.468,-14.468 H -1.869 V 20.64 c 0,2.758 -2.235,4.993 -4.993,4.993 V 5.031 h 2.558 L -0.512,5.03 c 10.725,0 19.449,8.726 19.449,19.45 V 43.93 H -0.512 c -9.948,0 -17.021,-6.913 -19.389,-18.896 l -4.44,-19.486 -19.555,4.457 c -6.821,1.348 -14.951,4.961 -14.951,14.515 v 14.47 h 14.468 c 7.932,0 14.386,-6.417 14.462,-14.33 h -10.627 c -2.758,0 -4.994,-2.236 -4.994,-4.994 h 20.603 v 0.028 h 0.007 v 4.827 c 0,0.043 -0.007,0.085 -0.007,0.128 v 0.011 0 c -0.076,10.66 -8.766,19.311 -19.444,19.311 H -63.828 V 24.52 c 0,-9.948 6.911,-17.018 18.896,-19.386 l 19.484,-4.442 -4.445,-19.504 c -2.953,-13.448 -9.704,-15.003 -14.526,-15.003 h -14.469 v 14.469 c 0,7.922 6.402,14.371 14.303,14.461 v -10.782 c 0,-2.758 2.236,-4.993 4.994,-4.993 v 20.602 h -0.003 v 0.162 h -4.825 c -10.725,0 -19.45,-8.726 -19.45,-19.45 v -19.45 h 19.45 c 10.112,0 16.634,6.365 19.388,18.897 l 4.44,19.484 19.505,-4.446 c 13.447,-2.951 15.002,-9.703 15.002,-14.526 V -33.855 H -0.552 c -7.935,0 -14.394,6.422 -14.463,14.341 h 10.67 c 2.759,0 4.994,2.235 4.994,4.993 h -20.602 v -0.039 h -0.05 v -4.827 c 0,-10.724 8.726,-19.449 19.451,-19.449 h 19.449 v 19.449 C 18.897,-9.275 12.532,-2.75 0,0"
       style="fill:#c18a29;fill-opacity:1;fill-rule:nonzero;stroke:none"
       transform="matrix(1.3333333,0,0,-1.3333333,291.54853,320.25493)"
       clip-path="url(#clipPath22)" /><path
       id="path23"
       d="m 0,0 v -37.482 h -36.015 l -11.677,-9.273 -11.676,9.273 H -95.383 V 0 l -9.319,12.201 9.319,12.201 v 37.483 h 36.015 l 11.676,9.272 11.677,-9.272 H 0 V 24.402 L 9.319,12.201 Z M 4.981,26.087 V 66.866 H -34.277 L -47.692,77.518 -61.107,66.866 h -39.258 V 26.087 l -10.606,-13.886 10.606,-13.885 v -40.779 h 39.258 l 13.415,-10.653 13.415,10.653 H 4.981 v 40.779 l 10.606,13.885 z"
       style="fill:#c18a29;fill-opacity:1;fill-rule:nonzero;stroke:none"
       transform="matrix(1.3333333,0,0,-1.3333333,325.1832,333.1004)"
       clip-path="url(#clipPath24)" /><path
       id="path25"
       d="m 0,0 c -2.768,0 -5.012,-2.244 -5.012,-5.013 0,-2.768 2.244,-5.012 5.012,-5.012 2.768,0 5.013,2.244 5.013,5.012 C 5.013,-2.244 2.768,0 0,0"
       style="fill:#c18a29;fill-opacity:1;fill-rule:nonzero;stroke:none"
       transform="matrix(1.3333333,0,0,-1.3333333,318.6436,310.1484)"
       clip-path="url(#clipPath26)" /><path
       id="path27"
       d="m 0,0 c 0,2.768 -2.244,5.013 -5.013,5.013 -2.768,0 -5.011,-2.245 -5.011,-5.013 0,-2.768 2.243,-5.013 5.011,-5.013 C -2.244,-5.013 0,-2.768 0,0"
       style="fill:#c18a29;fill-opacity:1;fill-rule:nonzero;stroke:none"
       transform="matrix(1.3333333,0,0,-1.3333333,210.51493,316.83187)"
       clip-path="url(#clipPath28)" /><path
       id="path29"
       d="m 0,0 c -2.768,0 -5.013,-2.244 -5.013,-5.012 0,-2.768 2.245,-5.012 5.013,-5.012 2.768,0 5.013,2.244 5.013,5.012 C 5.013,-2.244 2.768,0 0,0"
       style="fill:#c18a29;fill-opacity:1;fill-rule:nonzero;stroke:none"
       transform="matrix(1.3333333,0,0,-1.3333333,261.23813,367.55507)"
       clip-path="url(#clipPath30)" /><path
       id="path31"
       d="m 0,0 c 2.768,0 5.013,2.244 5.013,5.013 0,2.768 -2.245,5.011 -5.013,5.011 -2.768,0 -5.013,-2.243 -5.013,-5.011 C -5.013,2.244 -2.768,0 0,0"
       style="fill:#c18a29;fill-opacity:1;fill-rule:nonzero;stroke:none"
       transform="matrix(1.3333333,0,0,-1.3333333,261.23813,266.1088)"
       clip-path="url(#clipPath32)" /></g></svg>
